<?xml version="1.0" encoding="UTF-8" standalone="no"?><svg xmlns="http://www.w3.org/2000/svg" xmlns:xlink="http://www.w3.org/1999/xlink" contentScriptType="application/ecmascript" contentStyleType="text/css" height="193px" preserveAspectRatio="none" style="width:382px;height:193px;" version="1.1" viewBox="0 0 382 193" width="382px" zoomAndPan="magnify"><defs><filter height="300%" id="f6ylvz3oz2zic" width="300%" x="-1" y="-1"><feGaussianBlur result="blurOut" stdDeviation="2.0"/><feColorMatrix in="blurOut" result="blurOut2" type="matrix" values="0 0 0 0 0 0 0 0 0 0 0 0 0 0 0 0 0 0 .4 0"/><feOffset dx="4.0" dy="4.0" in="blurOut2" result="blurOut3"/><feBlend in="SourceGraphic" in2="blurOut3" mode="normal"/></filter></defs><g><!--MD5=[1e8a6196efe3b4fd46ee35a560923f00]
entity 具体实现\n不稳定 1--><rect fill="#FFFFFF" filter="url(#f6ylvz3oz2zic)" height="62.5938" style="stroke: #000000; stroke-width: 1.5;" width="96" x="7" y="7"/><path d="M39,7 L39,12 L32,19 L7,19 " fill="none" style="stroke: #000000; stroke-width: 1.5;"/><text fill="#000000" font-family="sans-serif" font-size="14" lengthAdjust="spacingAndGlyphs" textLength="56" x="22" y="39.9951">具体实现</text><text fill="#000000" font-family="sans-serif" font-size="14" lengthAdjust="spacingAndGlyphs" textLength="55" x="22" y="56.292">不稳定 1</text><!--MD5=[6618e00465163ef83bc536f752e771bc]
entity 具体实现\n不稳定 2--><rect fill="#FFFFFF" filter="url(#f6ylvz3oz2zic)" height="62.5938" style="stroke: #000000; stroke-width: 1.5;" width="96" x="138" y="7"/><path d="M170,7 L170,12 L163,19 L138,19 " fill="none" style="stroke: #000000; stroke-width: 1.5;"/><text fill="#000000" font-family="sans-serif" font-size="14" lengthAdjust="spacingAndGlyphs" textLength="56" x="153" y="39.9951">具体实现</text><text fill="#000000" font-family="sans-serif" font-size="14" lengthAdjust="spacingAndGlyphs" textLength="54" x="153" y="56.292">不稳定 2</text><!--MD5=[f2690630e1d9c53c65d72d27b2945c6c]
entity 具体实现\n不稳定 3--><rect fill="#FFFFFF" filter="url(#f6ylvz3oz2zic)" height="62.5938" style="stroke: #000000; stroke-width: 1.5;" width="96" x="269" y="7"/><path d="M301,7 L301,12 L294,19 L269,19 " fill="none" style="stroke: #000000; stroke-width: 1.5;"/><text fill="#000000" font-family="sans-serif" font-size="14" lengthAdjust="spacingAndGlyphs" textLength="56" x="284" y="39.9951">具体实现</text><text fill="#000000" font-family="sans-serif" font-size="14" lengthAdjust="spacingAndGlyphs" textLength="55" x="284" y="56.292">不稳定 3</text><!--MD5=[59206276b1c9b0829b1db7bc36f78a76]
entity 抽象--><rect fill="#FFFFFF" filter="url(#f6ylvz3oz2zic)" height="46.2969" style="stroke: #000000; stroke-width: 1.5;" width="68" x="152" y="130"/><path d="M174.6667,130 L174.6667,135 L167.6667,142 L152,142 " fill="none" style="stroke: #000000; stroke-width: 1.5;"/><text fill="#000000" font-family="sans-serif" font-size="14" lengthAdjust="spacingAndGlyphs" textLength="28" x="167" y="162.9951">抽象</text><!--MD5=[c02c29aaba59b974da6c167ea2ca0f2f]
link 具体实现\n不稳定 1 to 抽象--><path d="M90.7963,70.241 C111.392,87.9285 136.959,109.885 156.411,126.5895 " fill="none" id="具体实现\n不稳定 1-to-抽象" style="stroke: #A80036; stroke-width: 1.0; stroke-dasharray: 7.0,7.0;"/><polygon fill="#A80036" points="160.216,129.8575,155.9936,120.9597,156.4226,126.6002,150.782,127.0292,160.216,129.8575" style="stroke: #A80036; stroke-width: 1.0;"/><!--MD5=[b07e48b50d4bba716588487f28ef1de5]
link 具体实现\n不稳定 2 to 抽象--><path d="M186,70.241 C186,87.1915 186,108.0627 186,124.4748 " fill="none" id="具体实现\n不稳定 2-to-抽象" style="stroke: #A80036; stroke-width: 1.0; stroke-dasharray: 7.0,7.0;"/><polygon fill="#A80036" points="186,129.8575,190,120.8575,186,124.8575,182,120.8575,186,129.8575" style="stroke: #A80036; stroke-width: 1.0;"/><!--MD5=[5bf4b6b528881f71d55b312fbf279c76]
link 具体实现\n不稳定 3 to 抽象--><path d="M281.204,70.241 C260.608,87.9285 235.041,109.885 215.589,126.5895 " fill="none" id="具体实现\n不稳定 3-to-抽象" style="stroke: #A80036; stroke-width: 1.0; stroke-dasharray: 7.0,7.0;"/><polygon fill="#A80036" points="211.784,129.8575,221.218,127.0292,215.5774,126.6002,216.0064,120.9597,211.784,129.8575" style="stroke: #A80036; stroke-width: 1.0;"/><!--MD5=[7aa3e2ca0a22c038b3f47689e86d96eb]
@startuml
package "具体实现\n不稳定 1"<<Frame>> {

}
package "具体实现\n不稳定 2"<<Frame>> {

}
package "具体实现\n不稳定 3"<<Frame>> {

}
package "抽象"<<Frame>>{
}
"具体实现\n不稳定 1"..>"抽象"
"具体实现\n不稳定 2"..>"抽象"
"具体实现\n不稳定 3"..>"抽象"
@enduml

PlantUML version 1.2020.17(Sat Sep 19 12:30:11 UTC 2020)
(GPL source distribution)
Java Runtime: Java(TM) SE Runtime Environment
JVM: Java HotSpot(TM) 64-Bit Server VM
Default Encoding: UTF-8
Language: en
Country: US
--></g></svg>