<?xml version="1.0" encoding="UTF-8" standalone="no"?><svg xmlns="http://www.w3.org/2000/svg" xmlns:xlink="http://www.w3.org/1999/xlink" contentScriptType="application/ecmascript" contentStyleType="text/css" height="193px" preserveAspectRatio="none" style="width:382px;height:193px;" version="1.1" viewBox="0 0 382 193" width="382px" zoomAndPan="magnify"><defs><filter height="300%" id="f1315h7cav7r2s" width="300%" x="-1" y="-1"><feGaussianBlur result="blurOut" stdDeviation="2.0"/><feColorMatrix in="blurOut" result="blurOut2" type="matrix" values="0 0 0 0 0 0 0 0 0 0 0 0 0 0 0 0 0 0 .4 0"/><feOffset dx="4.0" dy="4.0" in="blurOut2" result="blurOut3"/><feBlend in="SourceGraphic" in2="blurOut3" mode="normal"/></filter></defs><g><!--MD5=[3920c7b3effe8deb4ff2c19fbf8151aa]
entity 具体实现\n不稳定1--><rect fill="#FFFFFF" filter="url(#f1315h7cav7r2s)" height="62.5938" style="stroke: #000000; stroke-width: 1.5;" width="96" x="7" y="7"/><path d="M39,7 L39,12 L32,19 L7,19 " fill="none" style="stroke: #000000; stroke-width: 1.5;"/><text fill="#000000" font-family="sans-serif" font-size="14" lengthAdjust="spacingAndGlyphs" textLength="56" x="22" y="39.9951">具体实现</text><text fill="#000000" font-family="sans-serif" font-size="14" lengthAdjust="spacingAndGlyphs" textLength="51" x="22" y="56.292">不稳定1</text><!--MD5=[ac0daa8c2d35d80152d2e1c9ca3a27ca]
entity 具体实现\n不稳定2--><rect fill="#FFFFFF" filter="url(#f1315h7cav7r2s)" height="62.5938" style="stroke: #000000; stroke-width: 1.5;" width="96" x="138" y="7"/><path d="M170,7 L170,12 L163,19 L138,19 " fill="none" style="stroke: #000000; stroke-width: 1.5;"/><text fill="#000000" font-family="sans-serif" font-size="14" lengthAdjust="spacingAndGlyphs" textLength="56" x="153" y="39.9951">具体实现</text><text fill="#000000" font-family="sans-serif" font-size="14" lengthAdjust="spacingAndGlyphs" textLength="50" x="153" y="56.292">不稳定2</text><!--MD5=[35f15c9383f1f01ed6ff0c5d6b1f9090]
entity 具体实现\n不稳定3--><rect fill="#FFFFFF" filter="url(#f1315h7cav7r2s)" height="62.5938" style="stroke: #000000; stroke-width: 1.5;" width="96" x="269" y="7"/><path d="M301,7 L301,12 L294,19 L269,19 " fill="none" style="stroke: #000000; stroke-width: 1.5;"/><text fill="#000000" font-family="sans-serif" font-size="14" lengthAdjust="spacingAndGlyphs" textLength="56" x="284" y="39.9951">具体实现</text><text fill="#000000" font-family="sans-serif" font-size="14" lengthAdjust="spacingAndGlyphs" textLength="51" x="284" y="56.292">不稳定3</text><!--MD5=[59206276b1c9b0829b1db7bc36f78a76]
entity 抽象--><rect fill="#FFFFFF" filter="url(#f1315h7cav7r2s)" height="46.2969" style="stroke: #000000; stroke-width: 1.5;" width="68" x="152" y="130"/><path d="M174.6667,130 L174.6667,135 L167.6667,142 L152,142 " fill="none" style="stroke: #000000; stroke-width: 1.5;"/><text fill="#000000" font-family="sans-serif" font-size="14" lengthAdjust="spacingAndGlyphs" textLength="28" x="167" y="162.9951">抽象</text><!--MD5=[11d5523f2b29d97dbcf9f5fd79637ea1]
link 具体实现\n不稳定1 to 抽象--><path d="M90.7963,70.241 C111.392,87.9285 136.959,109.885 156.411,126.5895 " fill="none" id="具体实现\n不稳定1-to-抽象" style="stroke: #A80036; stroke-width: 1.0; stroke-dasharray: 7.0,7.0;"/><polygon fill="#A80036" points="160.216,129.8575,155.9936,120.9597,156.4226,126.6002,150.782,127.0292,160.216,129.8575" style="stroke: #A80036; stroke-width: 1.0;"/><!--MD5=[dd85d0ec4162d2ec95b42c2ee45f2765]
link 具体实现\n不稳定2 to 抽象--><path d="M186,70.241 C186,87.1915 186,108.0627 186,124.4748 " fill="none" id="具体实现\n不稳定2-to-抽象" style="stroke: #A80036; stroke-width: 1.0; stroke-dasharray: 7.0,7.0;"/><polygon fill="#A80036" points="186,129.8575,190,120.8575,186,124.8575,182,120.8575,186,129.8575" style="stroke: #A80036; stroke-width: 1.0;"/><!--MD5=[fdb85d3f063499d247cafd60c0f0045b]
link 具体实现\n不稳定3 to 抽象--><path d="M281.204,70.241 C260.608,87.9285 235.041,109.885 215.589,126.5895 " fill="none" id="具体实现\n不稳定3-to-抽象" style="stroke: #A80036; stroke-width: 1.0; stroke-dasharray: 7.0,7.0;"/><polygon fill="#A80036" points="211.784,129.8575,221.218,127.0292,215.5774,126.6002,216.0064,120.9597,211.784,129.8575" style="stroke: #A80036; stroke-width: 1.0;"/><!--MD5=[fb51197e73fcf47cec8f5025939c4078]
@startuml
package "具体实现\n不稳定1"<<Frame>> {

}
package "具体实现\n不稳定2"<<Frame>> {

}
package "具体实现\n不稳定3"<<Frame>> {

}
package "抽象"<<Frame>>{
}
"具体实现\n不稳定1"..>"抽象"
"具体实现\n不稳定2"..>"抽象"
"具体实现\n不稳定3"..>"抽象"
@enduml

PlantUML version 1.2020.17(Sat Sep 19 12:30:11 UTC 2020)
(GPL source distribution)
Java Runtime: Java(TM) SE Runtime Environment
JVM: Java HotSpot(TM) 64-Bit Server VM
Default Encoding: UTF-8
Language: en
Country: US
--></g></svg>