<?xml version="1.0" encoding="UTF-8" standalone="no"?><svg xmlns="http://www.w3.org/2000/svg" xmlns:xlink="http://www.w3.org/1999/xlink" contentScriptType="application/ecmascript" contentStyleType="text/css" height="299px" preserveAspectRatio="none" style="width:382px;height:299px;" version="1.1" viewBox="0 0 382 299" width="382px" zoomAndPan="magnify"><defs><filter height="300%" id="ftd8mbjsyftkx" width="300%" x="-1" y="-1"><feGaussianBlur result="blurOut" stdDeviation="2.0"/><feColorMatrix in="blurOut" result="blurOut2" type="matrix" values="0 0 0 0 0 0 0 0 0 0 0 0 0 0 0 0 0 0 .4 0"/><feOffset dx="4.0" dy="4.0" in="blurOut2" result="blurOut3"/><feBlend in="SourceGraphic" in2="blurOut3" mode="normal"/></filter></defs><g><!--MD5=[1e8a6196efe3b4fd46ee35a560923f00]
entity 具体实现\n不稳定 1--><rect fill="#FFFFFF" filter="url(#ftd8mbjsyftkx)" height="62.5938" style="stroke: #000000; stroke-width: 1.5;" width="96" x="7" y="7"/><path d="M39,7 L39,12 L32,19 L7,19 " fill="none" style="stroke: #000000; stroke-width: 1.5;"/><text fill="#000000" font-family="sans-serif" font-size="14" lengthAdjust="spacingAndGlyphs" textLength="56" x="22" y="39.9951">具体实现</text><text fill="#000000" font-family="sans-serif" font-size="14" lengthAdjust="spacingAndGlyphs" textLength="55" x="22" y="56.292">不稳定 1</text><!--MD5=[6618e00465163ef83bc536f752e771bc]
entity 具体实现\n不稳定 2--><rect fill="#FFFFFF" filter="url(#ftd8mbjsyftkx)" height="62.5938" style="stroke: #000000; stroke-width: 1.5;" width="96" x="138" y="7"/><path d="M170,7 L170,12 L163,19 L138,19 " fill="none" style="stroke: #000000; stroke-width: 1.5;"/><text fill="#000000" font-family="sans-serif" font-size="14" lengthAdjust="spacingAndGlyphs" textLength="56" x="153" y="39.9951">具体实现</text><text fill="#000000" font-family="sans-serif" font-size="14" lengthAdjust="spacingAndGlyphs" textLength="54" x="153" y="56.292">不稳定 2</text><!--MD5=[f2690630e1d9c53c65d72d27b2945c6c]
entity 具体实现\n不稳定 3--><rect fill="#FFFFFF" filter="url(#ftd8mbjsyftkx)" height="62.5938" style="stroke: #000000; stroke-width: 1.5;" width="96" x="269" y="7"/><path d="M301,7 L301,12 L294,19 L269,19 " fill="none" style="stroke: #000000; stroke-width: 1.5;"/><text fill="#000000" font-family="sans-serif" font-size="14" lengthAdjust="spacingAndGlyphs" textLength="56" x="284" y="39.9951">具体实现</text><text fill="#000000" font-family="sans-serif" font-size="14" lengthAdjust="spacingAndGlyphs" textLength="55" x="284" y="56.292">不稳定 3</text><!--MD5=[98ee45ac8d6abf4d73f114c4a0f0345c]
entity 稳定--><rect fill="#FFFFFF" filter="url(#ftd8mbjsyftkx)" height="46.2969" style="stroke: #000000; stroke-width: 1.5;" width="68" x="152" y="130"/><path d="M174.6667,130 L174.6667,135 L167.6667,142 L152,142 " fill="none" style="stroke: #000000; stroke-width: 1.5;"/><text fill="#000000" font-family="sans-serif" font-size="14" lengthAdjust="spacingAndGlyphs" textLength="28" x="167" y="162.9951">稳定</text><!--MD5=[845036bf4ac6a2ddcc5fd92b0c21f14d]
entity 更稳定--><rect fill="#FFFFFF" filter="url(#ftd8mbjsyftkx)" height="46.2969" style="stroke: #000000; stroke-width: 1.5;" width="82" x="87" y="236"/><path d="M114.3333,236 L114.3333,241 L107.3333,248 L87,248 " fill="none" style="stroke: #000000; stroke-width: 1.5;"/><text fill="#000000" font-family="sans-serif" font-size="14" lengthAdjust="spacingAndGlyphs" textLength="42" x="102" y="268.9951">更稳定</text><!--MD5=[c370c307cee3e13a631ab958f4ea7459]
entity 不稳定--><rect fill="#FFFFFF" filter="url(#ftd8mbjsyftkx)" height="46.2969" style="stroke: #000000; stroke-width: 1.5;" width="82" x="204" y="236"/><path d="M231.3333,236 L231.3333,241 L224.3333,248 L204,248 " fill="none" style="stroke: #000000; stroke-width: 1.5;"/><text fill="#000000" font-family="sans-serif" font-size="14" lengthAdjust="spacingAndGlyphs" textLength="42" x="219" y="268.9951">不稳定</text><!--MD5=[e8f6d1346dc4953f13c8e659128c47cf]
link 具体实现\n不稳定 1 to 稳定--><path d="M90.7963,70.241 C111.392,87.928 136.959,109.885 156.411,126.589 " fill="none" id="具体实现\n不稳定 1-to-稳定" style="stroke: #A80036; stroke-width: 1.0; stroke-dasharray: 7.0,7.0;"/><polygon fill="#A80036" points="160.216,129.858,155.9925,120.9607,156.4221,126.6012,150.7816,127.0309,160.216,129.858" style="stroke: #A80036; stroke-width: 1.0;"/><!--MD5=[e0c3102da036a8e888ae774422306286]
link 具体实现\n不稳定 2 to 稳定--><path d="M186,70.241 C186,87.192 186,108.063 186,124.475 " fill="none" id="具体实现\n不稳定 2-to-稳定" style="stroke: #A80036; stroke-width: 1.0; stroke-dasharray: 7.0,7.0;"/><polygon fill="#A80036" points="186,129.858,190,120.858,186,124.858,182,120.858,186,129.858" style="stroke: #A80036; stroke-width: 1.0;"/><!--MD5=[7732907a0eb6babf6aef2ccf92869905]
link 具体实现\n不稳定 3 to 稳定--><path d="M281.204,70.241 C260.608,87.928 235.041,109.885 215.589,126.589 " fill="none" id="具体实现\n不稳定 3-to-稳定" style="stroke: #A80036; stroke-width: 1.0; stroke-dasharray: 7.0,7.0;"/><polygon fill="#A80036" points="211.784,129.858,221.2184,127.0309,215.5779,126.6012,216.0075,120.9607,211.784,129.858" style="stroke: #A80036; stroke-width: 1.0;"/><!--MD5=[f44f2ce247eda068a5d27cc7cb5df21e]
link 稳定 to 不稳定--><path d="M198.512,176.056 C207.664,192.1882 220.126,214.1535 229.843,231.2821 " fill="none" id="稳定-to-不稳定" style="stroke: #A80036; stroke-width: 1.0; stroke-dasharray: 7.0,7.0;"/><path d="M233.5185,229.6535 L222.613,226.6418 M226.5599,233.6004 L229.5716,222.6949 " fill="none" style="stroke: #A80036; stroke-width: 1.0;"/><!--MD5=[ac4e87957f7987a0cfb0facccb89c4dc]
link 稳定 to 更稳定--><path d="M173.7,176.056 C164.703,192.1882 152.453,214.1535 142.9,231.2821 " fill="none" id="稳定-to-更稳定" style="stroke: #A80036; stroke-width: 1.0; stroke-dasharray: 7.0,7.0;"/><polygon fill="#A80036" points="140.283,235.9761,148.1606,230.0649,142.7188,231.6095,141.1741,226.1676,140.283,235.9761" style="stroke: #A80036; stroke-width: 1.0;"/><!--MD5=[bd1eddb6c07adf579b737d633536773d]
@startuml
package "具体实现\n不稳定 1"<<Frame>> {

}
package "具体实现\n不稳定 2"<<Frame>> {

}
package "具体实现\n不稳定 3"<<Frame>> {

}
package "稳定"<<Frame>>{
}

package "更稳定"<<Frame>>{
}

package "不稳定"<<Frame>>{
}

"具体实现\n不稳定 1"..>"稳定"
"具体实现\n不稳定 2"..>"稳定"
"具体实现\n不稳定 3"..>"稳定"
"稳定" ..x "不稳定"
"稳定" ..>"更稳定"
@enduml

PlantUML version 1.2020.17(Sat Sep 19 12:30:11 UTC 2020)
(GPL source distribution)
Java Runtime: Java(TM) SE Runtime Environment
JVM: Java HotSpot(TM) 64-Bit Server VM
Default Encoding: UTF-8
Language: en
Country: US
--></g></svg>