<?xml version="1.0" encoding="UTF-8" standalone="no"?><svg xmlns="http://www.w3.org/2000/svg" xmlns:xlink="http://www.w3.org/1999/xlink" contentScriptType="application/ecmascript" contentStyleType="text/css" height="308.7719px" preserveAspectRatio="none" style="width:280px;height:308px;" version="1.1" viewBox="0 0 280 308" width="280.7018px" zoomAndPan="magnify"><defs><filter height="300%" id="f114mijygc0dkh" width="300%" x="-1" y="-1"><feGaussianBlur result="blurOut" stdDeviation="3.508771929824561"/><feColorMatrix in="blurOut" result="blurOut2" type="matrix" values="0 0 0 0 0 0 0 0 0 0 0 0 0 0 0 0 0 0 .4 0"/><feOffset dx="7.017543859649122" dy="7.017543859649122" in="blurOut2" result="blurOut3"/><feBlend in="SourceGraphic" in2="blurOut3" mode="normal"/></filter></defs><g><!--MD5=[770389ab9df153645bc6ef28055eb2b5]
entity A--><rect fill="#FFFFFF" filter="url(#f114mijygc0dkh)" height="81.2226" style="stroke: #000000; stroke-width: 2.631578947368421;" width="87.7193" x="13.1579" y="12.2807"/><path d="M42.3977,12.2807 L42.3977,21.0526 L30.117,33.3333 L13.1579,33.3333 " fill="none" style="stroke: #000000; stroke-width: 2.631578947368421;"/><text fill="#000000" font-family="sans-serif" font-size="24.5614" lengthAdjust="spacingAndGlyphs" textLength="17.5439" x="39.4737" y="70.1669">A</text><!--MD5=[b2d39259b6aeabc16b394deeb0238426]
entity B--><rect fill="#FFFFFF" filter="url(#f114mijygc0dkh)" height="81.2226" style="stroke: #000000; stroke-width: 2.631578947368421;" width="87.7193" x="162.2807" y="12.2807"/><path d="M191.5205,12.2807 L191.5205,21.0526 L179.2398,33.3333 L162.2807,33.3333 " fill="none" style="stroke: #000000; stroke-width: 2.631578947368421;"/><text fill="#000000" font-family="sans-serif" font-size="24.5614" lengthAdjust="spacingAndGlyphs" textLength="17.5439" x="188.5965" y="70.1669">B</text><!--MD5=[16fab723be418f7eaf2ea4bd895a8e51]
entity C--><rect fill="#FFFFFF" filter="url(#f114mijygc0dkh)" height="81.2226" style="stroke: #000000; stroke-width: 2.631578947368421;" width="87.7193" x="164.0351" y="198.2456"/><path d="M193.2749,198.2456 L193.2749,207.0175 L180.9942,219.2982 L164.0351,219.2982 " fill="none" style="stroke: #000000; stroke-width: 2.631578947368421;"/><text fill="#000000" font-family="sans-serif" font-size="24.5614" lengthAdjust="spacingAndGlyphs" textLength="17.5439" x="190.3509" y="256.1318">C</text><!--MD5=[118f42602524ad482f02b27ef22fc383]
entity D--><rect fill="#FFFFFF" filter="url(#f114mijygc0dkh)" height="81.2226" style="stroke: #000000; stroke-width: 2.631578947368421;" width="89.4737" x="12.2807" y="198.2456"/><path d="M42.1053,198.2456 L42.1053,207.0175 L29.8246,219.2982 L12.2807,219.2982 " fill="none" style="stroke: #000000; stroke-width: 2.631578947368421;"/><text fill="#000000" font-family="sans-serif" font-size="24.5614" lengthAdjust="spacingAndGlyphs" textLength="19.2982" x="38.5965" y="256.1318">D</text><!--MD5=[5e2eec62a50b26b6b0db6c12e4ee289c]
link A to B--><path d="M101.2884,52.6316 C118.4949,52.6316 135.7014,52.6316 152.9081,52.6316 " fill="none" id="A-to-B" style="stroke: #A80036; stroke-width: 1.7543859649122806; stroke-dasharray: 7.0,7.0;"/><polygon fill="#A80036" points="161.906,52.6316,146.1165,45.614,153.134,52.6316,146.1165,59.6491,161.906,52.6316" style="stroke: #A80036; stroke-width: 1.7543859649122806;"/><!--MD5=[cd25d8247324207f828a4db9f58ed69d]
link B to C--><path d="M206.5123,93.0807 C206.7825,121.1409 207.1491,159.2605 207.4368,189.1961 " fill="none" id="B-to-C" style="stroke: #A80036; stroke-width: 1.7543859649122806; stroke-dasharray: 7.0,7.0;"/><polygon fill="#A80036" points="207.5228,198.2037,214.3875,182.3472,207.4381,189.4322,200.3531,182.4827,207.5228,198.2037" style="stroke: #A80036; stroke-width: 1.7543859649122806;"/><!--MD5=[9d6832e89ea73245a0b39b2e4aa7ebe2]
reverse link D to C--><path d="M111.036,238.5965 C128.6802,238.5965 146.3244,238.5965 163.9688,238.5965 " fill="none" id="D-backto-C" style="stroke: #A80036; stroke-width: 1.7543859649122806; stroke-dasharray: 7.0,7.0;"/><polygon fill="#A80036" points="101.8091,238.5965,117.5986,245.614,110.5811,238.5965,117.5986,231.5789,101.8091,238.5965" style="stroke: #A80036; stroke-width: 1.7543859649122806;"/><!--MD5=[0cc414c05168401e44af7a1c991d2042]
link A to D--><path d="M57.0175,93.0807 C57.0175,121.1409 57.0175,159.2605 57.0175,189.1961 " fill="none" id="A-to-D" style="stroke: #A80036; stroke-width: 1.7543859649122806; stroke-dasharray: 7.0,7.0;"/><polygon fill="#A80036" points="57.0175,198.2037,64.0351,182.4142,57.0175,189.4318,50,182.4142,57.0175,198.2037" style="stroke: #A80036; stroke-width: 1.7543859649122806;"/><!--MD5=[b851810115406a0bbe323a0792f2c342]
@startuml
scale 250 width

package "A"<<Frame>> {

}
package "B"<<Frame>> {

}
package "C"<<Frame>> {

}
package "D"<<Frame>> {

}
"A" .> "B"
"B" ..> "C"
"D" <. "C"
"A" ..> "D"
@enduml

PlantUML version 1.2020.17(Sat Sep 19 12:30:11 UTC 2020)
(GPL source distribution)
Java Runtime: Java(TM) SE Runtime Environment
JVM: Java HotSpot(TM) 64-Bit Server VM
Default Encoding: UTF-8
Language: en
Country: US
--></g></svg>