<?xml version="1.0" encoding="UTF-8" standalone="no"?><svg xmlns="http://www.w3.org/2000/svg" xmlns:xlink="http://www.w3.org/1999/xlink" contentScriptType="application/ecmascript" contentStyleType="text/css" height="246px" preserveAspectRatio="none" style="width:249px;height:246px;" version="1.1" viewBox="0 0 249 246" width="249px" zoomAndPan="magnify"><defs><filter height="300%" id="f1ianff3e2juvo" width="300%" x="-1" y="-1"><feGaussianBlur result="blurOut" stdDeviation="2.0"/><feColorMatrix in="blurOut" result="blurOut2" type="matrix" values="0 0 0 0 0 0 0 0 0 0 0 0 0 0 0 0 0 0 .4 0"/><feOffset dx="4.0" dy="4.0" in="blurOut2" result="blurOut3"/><feBlend in="SourceGraphic" in2="blurOut3" mode="normal"/></filter></defs><g><!--MD5=[99eba6e841e10f0e903161ac505afb50]
cluster A--><rect fill="#FFFFFF" filter="url(#f1ianff3e2juvo)" height="99" style="stroke: #000000; stroke-width: 1.5;" width="149" x="46" y="7"/><path d="M67,7 L67,16.2969 L57,26.2969 L46,26.2969 " fill="none" style="stroke: #000000; stroke-width: 1.5;"/><text fill="#000000" font-family="sans-serif" font-size="14" font-weight="bold" lengthAdjust="spacingAndGlyphs" textLength="11" x="49" y="20.9951">A</text><!--MD5=[7ab6094aba2dbfe683d313850b4878bd]
cluster B--><rect fill="#FFFFFF" filter="url(#f1ianff3e2juvo)" height="99" style="stroke: #000000; stroke-width: 1.5;" width="225" x="7" y="130"/><path d="M28,130 L28,139.2969 L18,149.2969 L7,149.2969 " fill="none" style="stroke: #000000; stroke-width: 1.5;"/><text fill="#000000" font-family="sans-serif" font-size="14" font-weight="bold" lengthAdjust="spacingAndGlyphs" textLength="11" x="10" y="143.9951">B</text><!--MD5=[64dca1f8d25645e316b7620b91da6f13]
class U--><rect codeLine="2" fill="#FEFECE" filter="url(#f1ianff3e2juvo)" height="48" id="U" style="stroke: #A80036; stroke-width: 1.5;" width="41" x="137.5" y="42"/><ellipse cx="152.5" cy="58" fill="#ADD1B2" rx="11" ry="11" style="stroke: #A80036; stroke-width: 1.0;"/><path d="M154.8438,53.6719 C153.9063,53.2344 153.3125,53.0938 152.4375,53.0938 C149.8125,53.0938 147.8125,55.1719 147.8125,57.8906 L147.8125,59.0156 C147.8125,61.5938 149.9219,63.4844 152.8125,63.4844 C154.0313,63.4844 155.1875,63.1875 155.9375,62.6406 C156.5156,62.2344 156.8438,61.7813 156.8438,61.3906 C156.8438,60.9375 156.4531,60.5469 155.9844,60.5469 C155.7656,60.5469 155.5625,60.625 155.375,60.8125 C154.9219,61.2969 154.9219,61.2969 154.7344,61.3906 C154.3125,61.6563 153.625,61.7813 152.8594,61.7813 C150.8125,61.7813 149.5156,60.6875 149.5156,58.9844 L149.5156,57.8906 C149.5156,56.1094 150.7656,54.7969 152.5,54.7969 C153.0781,54.7969 153.6875,54.9531 154.1563,55.2031 C154.6406,55.4844 154.8125,55.7031 154.9063,56.1094 C154.9688,56.5156 155,56.6406 155.1406,56.7656 C155.2813,56.9063 155.5156,57.0156 155.7344,57.0156 C156,57.0156 156.2656,56.875 156.4375,56.6563 C156.5469,56.5 156.5781,56.3125 156.5781,55.8906 L156.5781,54.4688 C156.5781,54.0313 156.5625,53.9063 156.4688,53.75 C156.3125,53.4844 156.0313,53.3438 155.7344,53.3438 C155.4375,53.3438 155.2344,53.4375 155.0156,53.75 L154.8438,53.6719 Z "/><text fill="#000000" font-family="sans-serif" font-size="12" lengthAdjust="spacingAndGlyphs" textLength="9" x="166.5" y="62.1543">U</text><line style="stroke: #A80036; stroke-width: 1.5;" x1="138.5" x2="177.5" y1="74" y2="74"/><line style="stroke: #A80036; stroke-width: 1.5;" x1="138.5" x2="177.5" y1="82" y2="82"/><!--MD5=[1ae2715697942bd221ebc3232bf48911]
class V--><rect codeLine="4" fill="#FEFECE" filter="url(#f1ianff3e2juvo)" height="48" id="V" style="stroke: #A80036; stroke-width: 1.5;" width="40" x="62" y="42"/><ellipse cx="77" cy="58" fill="#ADD1B2" rx="11" ry="11" style="stroke: #A80036; stroke-width: 1.0;"/><path d="M79.3438,53.6719 C78.4063,53.2344 77.8125,53.0938 76.9375,53.0938 C74.3125,53.0938 72.3125,55.1719 72.3125,57.8906 L72.3125,59.0156 C72.3125,61.5938 74.4219,63.4844 77.3125,63.4844 C78.5313,63.4844 79.6875,63.1875 80.4375,62.6406 C81.0156,62.2344 81.3438,61.7813 81.3438,61.3906 C81.3438,60.9375 80.9531,60.5469 80.4844,60.5469 C80.2656,60.5469 80.0625,60.625 79.875,60.8125 C79.4219,61.2969 79.4219,61.2969 79.2344,61.3906 C78.8125,61.6563 78.125,61.7813 77.3594,61.7813 C75.3125,61.7813 74.0156,60.6875 74.0156,58.9844 L74.0156,57.8906 C74.0156,56.1094 75.2656,54.7969 77,54.7969 C77.5781,54.7969 78.1875,54.9531 78.6563,55.2031 C79.1406,55.4844 79.3125,55.7031 79.4063,56.1094 C79.4688,56.5156 79.5,56.6406 79.6406,56.7656 C79.7813,56.9063 80.0156,57.0156 80.2344,57.0156 C80.5,57.0156 80.7656,56.875 80.9375,56.6563 C81.0469,56.5 81.0781,56.3125 81.0781,55.8906 L81.0781,54.4688 C81.0781,54.0313 81.0625,53.9063 80.9688,53.75 C80.8125,53.4844 80.5313,53.3438 80.2344,53.3438 C79.9375,53.3438 79.7344,53.4375 79.5156,53.75 L79.3438,53.6719 Z "/><text fill="#000000" font-family="sans-serif" font-size="12" lengthAdjust="spacingAndGlyphs" textLength="8" x="91" y="62.1543">V</text><line style="stroke: #A80036; stroke-width: 1.5;" x1="63" x2="101" y1="74" y2="74"/><line style="stroke: #A80036; stroke-width: 1.5;" x1="63" x2="101" y1="82" y2="82"/><!--MD5=[b203f6b098b8dffe494a95d9c500f8e2]
class X--><rect codeLine="9" fill="#FEFECE" filter="url(#f1ianff3e2juvo)" height="48" id="X" style="stroke: #A80036; stroke-width: 1.5;" width="40" x="176" y="165"/><ellipse cx="191" cy="181" fill="#ADD1B2" rx="11" ry="11" style="stroke: #A80036; stroke-width: 1.0;"/><path d="M193.3438,176.6719 C192.4063,176.2344 191.8125,176.0938 190.9375,176.0938 C188.3125,176.0938 186.3125,178.1719 186.3125,180.8906 L186.3125,182.0156 C186.3125,184.5938 188.4219,186.4844 191.3125,186.4844 C192.5313,186.4844 193.6875,186.1875 194.4375,185.6406 C195.0156,185.2344 195.3438,184.7813 195.3438,184.3906 C195.3438,183.9375 194.9531,183.5469 194.4844,183.5469 C194.2656,183.5469 194.0625,183.625 193.875,183.8125 C193.4219,184.2969 193.4219,184.2969 193.2344,184.3906 C192.8125,184.6563 192.125,184.7813 191.3594,184.7813 C189.3125,184.7813 188.0156,183.6875 188.0156,181.9844 L188.0156,180.8906 C188.0156,179.1094 189.2656,177.7969 191,177.7969 C191.5781,177.7969 192.1875,177.9531 192.6563,178.2031 C193.1406,178.4844 193.3125,178.7031 193.4063,179.1094 C193.4688,179.5156 193.5,179.6406 193.6406,179.7656 C193.7813,179.9063 194.0156,180.0156 194.2344,180.0156 C194.5,180.0156 194.7656,179.875 194.9375,179.6563 C195.0469,179.5 195.0781,179.3125 195.0781,178.8906 L195.0781,177.4688 C195.0781,177.0313 195.0625,176.9063 194.9688,176.75 C194.8125,176.4844 194.5313,176.3438 194.2344,176.3438 C193.9375,176.3438 193.7344,176.4375 193.5156,176.75 L193.3438,176.6719 Z "/><text fill="#000000" font-family="sans-serif" font-size="12" lengthAdjust="spacingAndGlyphs" textLength="8" x="205" y="185.1543">X</text><line style="stroke: #A80036; stroke-width: 1.5;" x1="177" x2="215" y1="197" y2="197"/><line style="stroke: #A80036; stroke-width: 1.5;" x1="177" x2="215" y1="205" y2="205"/><!--MD5=[96f4af6d77c257d669403540bfe12077]
class IY--><rect codeLine="12" fill="#FEFECE" filter="url(#f1ianff3e2juvo)" height="48" id="IY" style="stroke: #A80036; stroke-width: 1.5;" width="43" x="23.5" y="165"/><ellipse cx="38.5" cy="181" fill="#B4A7E5" rx="11" ry="11" style="stroke: #A80036; stroke-width: 1.0;"/><path d="M39.4531,177.7813 L41.1719,177.7813 C41.5625,177.7813 41.75,177.75 41.875,177.6719 C42.1406,177.5156 42.2813,177.2344 42.2813,176.9375 C42.2813,176.6719 42.1719,176.4063 41.9375,176.2344 C41.7656,176.125 41.625,176.0938 41.1719,176.0938 L36.0313,176.0938 C35.5938,176.0938 35.4688,176.1094 35.3125,176.2031 C35.0625,176.3594 34.9063,176.6563 34.9063,176.9375 C34.9063,177.2188 35.0469,177.4688 35.2656,177.6406 C35.4219,177.75 35.6094,177.7813 36.0313,177.7813 L37.75,177.7813 L37.75,184.2969 L36.0313,184.2969 C35.5938,184.2969 35.4688,184.3125 35.3125,184.4219 C35.0625,184.5781 34.9063,184.8594 34.9063,185.1563 C34.9063,185.4063 35.0469,185.6719 35.2656,185.8281 C35.4219,185.9531 35.625,186 36.0313,186 L41.1719,186 C41.9219,186 42.2813,185.7188 42.2813,185.1563 C42.2813,184.875 42.1719,184.625 41.9375,184.4531 C41.7656,184.3281 41.625,184.2969 41.1719,184.2969 L39.4531,184.2969 L39.4531,177.7813 Z "/><text fill="#000000" font-family="sans-serif" font-size="12" font-style="italic" lengthAdjust="spacingAndGlyphs" textLength="11" x="52.5" y="185.1543">IY</text><line style="stroke: #A80036; stroke-width: 1.5;" x1="24.5" x2="65.5" y1="197" y2="197"/><line style="stroke: #A80036; stroke-width: 1.5;" x1="24.5" x2="65.5" y1="205" y2="205"/><!--MD5=[1904c273551b1d3cd5b432df5b70c153]
class Y--><rect codeLine="16" fill="#FEFECE" filter="url(#f1ianff3e2juvo)" height="48" id="Y" style="stroke: #A80036; stroke-width: 1.5;" width="39" x="101.5" y="165"/><ellipse cx="116.5" cy="181" fill="#ADD1B2" rx="11" ry="11" style="stroke: #A80036; stroke-width: 1.0;"/><path d="M118.8438,176.6719 C117.9063,176.2344 117.3125,176.0938 116.4375,176.0938 C113.8125,176.0938 111.8125,178.1719 111.8125,180.8906 L111.8125,182.0156 C111.8125,184.5938 113.9219,186.4844 116.8125,186.4844 C118.0313,186.4844 119.1875,186.1875 119.9375,185.6406 C120.5156,185.2344 120.8438,184.7813 120.8438,184.3906 C120.8438,183.9375 120.4531,183.5469 119.9844,183.5469 C119.7656,183.5469 119.5625,183.625 119.375,183.8125 C118.9219,184.2969 118.9219,184.2969 118.7344,184.3906 C118.3125,184.6563 117.625,184.7813 116.8594,184.7813 C114.8125,184.7813 113.5156,183.6875 113.5156,181.9844 L113.5156,180.8906 C113.5156,179.1094 114.7656,177.7969 116.5,177.7969 C117.0781,177.7969 117.6875,177.9531 118.1563,178.2031 C118.6406,178.4844 118.8125,178.7031 118.9063,179.1094 C118.9688,179.5156 119,179.6406 119.1406,179.7656 C119.2813,179.9063 119.5156,180.0156 119.7344,180.0156 C120,180.0156 120.2656,179.875 120.4375,179.6563 C120.5469,179.5 120.5781,179.3125 120.5781,178.8906 L120.5781,177.4688 C120.5781,177.0313 120.5625,176.9063 120.4688,176.75 C120.3125,176.4844 120.0313,176.3438 119.7344,176.3438 C119.4375,176.3438 119.2344,176.4375 119.0156,176.75 L118.8438,176.6719 Z "/><text fill="#000000" font-family="sans-serif" font-size="12" lengthAdjust="spacingAndGlyphs" textLength="7" x="130.5" y="185.1543">Y</text><line style="stroke: #A80036; stroke-width: 1.5;" x1="102.5" x2="139.5" y1="197" y2="197"/><line style="stroke: #A80036; stroke-width: 1.5;" x1="102.5" x2="139.5" y1="205" y2="205"/><!--MD5=[00f4f4b0fabf555a852ee112055be09c]
link U to X--><path codeLine="22" d="M165.237,90.044 C171.457,109.85 180.45,138.484 187.107,159.683 " fill="none" id="U-to-X" style="stroke: #A80036; stroke-width: 1.0; stroke-dasharray: 7.0,7.0;"/><polygon fill="#A80036" points="188.661,164.6297,189.7804,154.8447,187.1628,159.8594,182.148,157.2418,188.661,164.6297" style="stroke: #A80036; stroke-width: 1.0;"/><!--MD5=[cd0893058a7d0149e15db6f79d330a05]
link V to IY--><path codeLine="23" d="M74.9535,90.044 C68.8972,109.85 60.1412,138.484 53.6589,159.683 " fill="none" id="V-to-IY" style="stroke: #A80036; stroke-width: 1.0; stroke-dasharray: 7.0,7.0;"/><polygon fill="#A80036" points="52.1463,164.6297,58.6035,157.193,53.6086,159.8483,50.9533,154.8534,52.1463,164.6297" style="stroke: #A80036; stroke-width: 1.0;"/><!--MD5=[4307a0d33fa5b6ba8eaf6a85d363ed4b]
link Y to IY--><path codeLine="24" d="M101.476,189 C91.597,189 81.7173,189 71.8381,189 " fill="none" id="Y-to-IY" style="stroke: #A80036; stroke-width: 1.0; stroke-dasharray: 7.0,7.0;"/><polygon fill="#A80036" points="66.6719,189,75.6719,193,71.6719,189,75.6719,185,66.6719,189" style="stroke: #A80036; stroke-width: 1.0;"/><!--MD5=[4a068d41992d11e65855aff3c2074a4d]
@startuml
package "A"<<Frame>> {
    class U {
    }
    class V {
    }
}

package "B"<<Frame>> {
    class X {

    }
    interface IY {

    }

    class Y {

    }
    
}

U ..> X
V ..> IY
Y .> IY
@enduml

PlantUML version 1.2020.17(Sat Sep 19 12:30:11 UTC 2020)
(GPL source distribution)
Java Runtime: Java(TM) SE Runtime Environment
JVM: Java HotSpot(TM) 64-Bit Server VM
Default Encoding: UTF-8
Language: en
Country: US
--></g></svg>