<?xml version="1.0" encoding="UTF-8" standalone="no"?><svg xmlns="http://www.w3.org/2000/svg" xmlns:xlink="http://www.w3.org/1999/xlink" contentScriptType="application/ecmascript" contentStyleType="text/css" height="246px" preserveAspectRatio="none" style="width:173px;height:246px;" version="1.1" viewBox="0 0 173 246" width="173px" zoomAndPan="magnify"><defs><filter height="300%" id="f1gaq1xvbnbht7" width="300%" x="-1" y="-1"><feGaussianBlur result="blurOut" stdDeviation="2.0"/><feColorMatrix in="blurOut" result="blurOut2" type="matrix" values="0 0 0 0 0 0 0 0 0 0 0 0 0 0 0 0 0 0 .4 0"/><feOffset dx="4.0" dy="4.0" in="blurOut2" result="blurOut3"/><feBlend in="SourceGraphic" in2="blurOut3" mode="normal"/></filter></defs><g><!--MD5=[99eba6e841e10f0e903161ac505afb50]
cluster A--><rect fill="#FFFFFF" filter="url(#f1gaq1xvbnbht7)" height="99" style="stroke: #000000; stroke-width: 1.5;" width="149" x="7" y="7"/><path d="M28,7 L28,16.2969 L18,26.2969 L7,26.2969 " fill="none" style="stroke: #000000; stroke-width: 1.5;"/><text fill="#000000" font-family="sans-serif" font-size="14" font-weight="bold" lengthAdjust="spacingAndGlyphs" textLength="11" x="10" y="20.9951">A</text><!--MD5=[7ab6094aba2dbfe683d313850b4878bd]
cluster B--><rect fill="#FFFFFF" filter="url(#f1gaq1xvbnbht7)" height="99" style="stroke: #000000; stroke-width: 1.5;" width="147" x="7" y="130"/><path d="M28,130 L28,139.2969 L18,149.2969 L7,149.2969 " fill="none" style="stroke: #000000; stroke-width: 1.5;"/><text fill="#000000" font-family="sans-serif" font-size="14" font-weight="bold" lengthAdjust="spacingAndGlyphs" textLength="11" x="10" y="143.9951">B</text><!--MD5=[64dca1f8d25645e316b7620b91da6f13]
class U--><rect codeLine="2" fill="#FEFECE" filter="url(#f1gaq1xvbnbht7)" height="48" id="U" style="stroke: #A80036; stroke-width: 1.5;" width="41" x="98.5" y="42"/><ellipse cx="113.5" cy="58" fill="#ADD1B2" rx="11" ry="11" style="stroke: #A80036; stroke-width: 1.0;"/><path d="M115.8438,53.6719 C114.9063,53.2344 114.3125,53.0938 113.4375,53.0938 C110.8125,53.0938 108.8125,55.1719 108.8125,57.8906 L108.8125,59.0156 C108.8125,61.5938 110.9219,63.4844 113.8125,63.4844 C115.0313,63.4844 116.1875,63.1875 116.9375,62.6406 C117.5156,62.2344 117.8438,61.7813 117.8438,61.3906 C117.8438,60.9375 117.4531,60.5469 116.9844,60.5469 C116.7656,60.5469 116.5625,60.625 116.375,60.8125 C115.9219,61.2969 115.9219,61.2969 115.7344,61.3906 C115.3125,61.6563 114.625,61.7813 113.8594,61.7813 C111.8125,61.7813 110.5156,60.6875 110.5156,58.9844 L110.5156,57.8906 C110.5156,56.1094 111.7656,54.7969 113.5,54.7969 C114.0781,54.7969 114.6875,54.9531 115.1563,55.2031 C115.6406,55.4844 115.8125,55.7031 115.9063,56.1094 C115.9688,56.5156 116,56.6406 116.1406,56.7656 C116.2813,56.9063 116.5156,57.0156 116.7344,57.0156 C117,57.0156 117.2656,56.875 117.4375,56.6563 C117.5469,56.5 117.5781,56.3125 117.5781,55.8906 L117.5781,54.4688 C117.5781,54.0313 117.5625,53.9063 117.4688,53.75 C117.3125,53.4844 117.0313,53.3438 116.7344,53.3438 C116.4375,53.3438 116.2344,53.4375 116.0156,53.75 L115.8438,53.6719 Z "/><text fill="#000000" font-family="sans-serif" font-size="12" lengthAdjust="spacingAndGlyphs" textLength="9" x="127.5" y="62.1543">U</text><line style="stroke: #A80036; stroke-width: 1.5;" x1="99.5" x2="138.5" y1="74" y2="74"/><line style="stroke: #A80036; stroke-width: 1.5;" x1="99.5" x2="138.5" y1="82" y2="82"/><!--MD5=[1ae2715697942bd221ebc3232bf48911]
class V--><rect codeLine="4" fill="#FEFECE" filter="url(#f1gaq1xvbnbht7)" height="48" id="V" style="stroke: #A80036; stroke-width: 1.5;" width="40" x="23" y="42"/><ellipse cx="38" cy="58" fill="#ADD1B2" rx="11" ry="11" style="stroke: #A80036; stroke-width: 1.0;"/><path d="M40.3438,53.6719 C39.4063,53.2344 38.8125,53.0938 37.9375,53.0938 C35.3125,53.0938 33.3125,55.1719 33.3125,57.8906 L33.3125,59.0156 C33.3125,61.5938 35.4219,63.4844 38.3125,63.4844 C39.5313,63.4844 40.6875,63.1875 41.4375,62.6406 C42.0156,62.2344 42.3438,61.7813 42.3438,61.3906 C42.3438,60.9375 41.9531,60.5469 41.4844,60.5469 C41.2656,60.5469 41.0625,60.625 40.875,60.8125 C40.4219,61.2969 40.4219,61.2969 40.2344,61.3906 C39.8125,61.6563 39.125,61.7813 38.3594,61.7813 C36.3125,61.7813 35.0156,60.6875 35.0156,58.9844 L35.0156,57.8906 C35.0156,56.1094 36.2656,54.7969 38,54.7969 C38.5781,54.7969 39.1875,54.9531 39.6563,55.2031 C40.1406,55.4844 40.3125,55.7031 40.4063,56.1094 C40.4688,56.5156 40.5,56.6406 40.6406,56.7656 C40.7813,56.9063 41.0156,57.0156 41.2344,57.0156 C41.5,57.0156 41.7656,56.875 41.9375,56.6563 C42.0469,56.5 42.0781,56.3125 42.0781,55.8906 L42.0781,54.4688 C42.0781,54.0313 42.0625,53.9063 41.9688,53.75 C41.8125,53.4844 41.5313,53.3438 41.2344,53.3438 C40.9375,53.3438 40.7344,53.4375 40.5156,53.75 L40.3438,53.6719 Z "/><text fill="#000000" font-family="sans-serif" font-size="12" lengthAdjust="spacingAndGlyphs" textLength="8" x="52" y="62.1543">V</text><line style="stroke: #A80036; stroke-width: 1.5;" x1="24" x2="62" y1="74" y2="74"/><line style="stroke: #A80036; stroke-width: 1.5;" x1="24" x2="62" y1="82" y2="82"/><!--MD5=[b203f6b098b8dffe494a95d9c500f8e2]
class X--><rect codeLine="9" fill="#FEFECE" filter="url(#f1gaq1xvbnbht7)" height="48" id="X" style="stroke: #A80036; stroke-width: 1.5;" width="40" x="98" y="165"/><ellipse cx="113" cy="181" fill="#ADD1B2" rx="11" ry="11" style="stroke: #A80036; stroke-width: 1.0;"/><path d="M115.3438,176.6719 C114.4063,176.2344 113.8125,176.0938 112.9375,176.0938 C110.3125,176.0938 108.3125,178.1719 108.3125,180.8906 L108.3125,182.0156 C108.3125,184.5938 110.4219,186.4844 113.3125,186.4844 C114.5313,186.4844 115.6875,186.1875 116.4375,185.6406 C117.0156,185.2344 117.3438,184.7813 117.3438,184.3906 C117.3438,183.9375 116.9531,183.5469 116.4844,183.5469 C116.2656,183.5469 116.0625,183.625 115.875,183.8125 C115.4219,184.2969 115.4219,184.2969 115.2344,184.3906 C114.8125,184.6563 114.125,184.7813 113.3594,184.7813 C111.3125,184.7813 110.0156,183.6875 110.0156,181.9844 L110.0156,180.8906 C110.0156,179.1094 111.2656,177.7969 113,177.7969 C113.5781,177.7969 114.1875,177.9531 114.6563,178.2031 C115.1406,178.4844 115.3125,178.7031 115.4063,179.1094 C115.4688,179.5156 115.5,179.6406 115.6406,179.7656 C115.7813,179.9063 116.0156,180.0156 116.2344,180.0156 C116.5,180.0156 116.7656,179.875 116.9375,179.6563 C117.0469,179.5 117.0781,179.3125 117.0781,178.8906 L117.0781,177.4688 C117.0781,177.0313 117.0625,176.9063 116.9688,176.75 C116.8125,176.4844 116.5313,176.3438 116.2344,176.3438 C115.9375,176.3438 115.7344,176.4375 115.5156,176.75 L115.3438,176.6719 Z "/><text fill="#000000" font-family="sans-serif" font-size="12" lengthAdjust="spacingAndGlyphs" textLength="8" x="127" y="185.1543">X</text><line style="stroke: #A80036; stroke-width: 1.5;" x1="99" x2="137" y1="197" y2="197"/><line style="stroke: #A80036; stroke-width: 1.5;" x1="99" x2="137" y1="205" y2="205"/><!--MD5=[1904c273551b1d3cd5b432df5b70c153]
class Y--><rect codeLine="12" fill="#FEFECE" filter="url(#f1gaq1xvbnbht7)" height="48" id="Y" style="stroke: #A80036; stroke-width: 1.5;" width="39" x="23.5" y="165"/><ellipse cx="38.5" cy="181" fill="#ADD1B2" rx="11" ry="11" style="stroke: #A80036; stroke-width: 1.0;"/><path d="M40.8438,176.6719 C39.9063,176.2344 39.3125,176.0938 38.4375,176.0938 C35.8125,176.0938 33.8125,178.1719 33.8125,180.8906 L33.8125,182.0156 C33.8125,184.5938 35.9219,186.4844 38.8125,186.4844 C40.0313,186.4844 41.1875,186.1875 41.9375,185.6406 C42.5156,185.2344 42.8438,184.7813 42.8438,184.3906 C42.8438,183.9375 42.4531,183.5469 41.9844,183.5469 C41.7656,183.5469 41.5625,183.625 41.375,183.8125 C40.9219,184.2969 40.9219,184.2969 40.7344,184.3906 C40.3125,184.6563 39.625,184.7813 38.8594,184.7813 C36.8125,184.7813 35.5156,183.6875 35.5156,181.9844 L35.5156,180.8906 C35.5156,179.1094 36.7656,177.7969 38.5,177.7969 C39.0781,177.7969 39.6875,177.9531 40.1563,178.2031 C40.6406,178.4844 40.8125,178.7031 40.9063,179.1094 C40.9688,179.5156 41,179.6406 41.1406,179.7656 C41.2813,179.9063 41.5156,180.0156 41.7344,180.0156 C42,180.0156 42.2656,179.875 42.4375,179.6563 C42.5469,179.5 42.5781,179.3125 42.5781,178.8906 L42.5781,177.4688 C42.5781,177.0313 42.5625,176.9063 42.4688,176.75 C42.3125,176.4844 42.0313,176.3438 41.7344,176.3438 C41.4375,176.3438 41.2344,176.4375 41.0156,176.75 L40.8438,176.6719 Z "/><text fill="#000000" font-family="sans-serif" font-size="12" lengthAdjust="spacingAndGlyphs" textLength="7" x="52.5" y="185.1543">Y</text><line style="stroke: #A80036; stroke-width: 1.5;" x1="24.5" x2="61.5" y1="197" y2="197"/><line style="stroke: #A80036; stroke-width: 1.5;" x1="24.5" x2="61.5" y1="205" y2="205"/><!--MD5=[00f4f4b0fabf555a852ee112055be09c]
link U to X--><path codeLine="17" d="M118.81,90.044 C118.647,109.766 118.411,138.243 118.236,159.4143 " fill="none" id="U-to-X" style="stroke: #A80036; stroke-width: 1.0; stroke-dasharray: 7.0,7.0;"/><polygon fill="#A80036" points="118.193,164.6297,122.2675,155.6632,118.2344,159.6299,114.2677,155.5969,118.193,164.6297" style="stroke: #A80036; stroke-width: 1.0;"/><!--MD5=[2ad5b96d78d304db61794b0474449afc]
link Y to V--><path codeLine="18" d="M43,164.6297 C43,144.812 43,116.327 43,95.237 " fill="none" id="Y-to-V" style="stroke: #A80036; stroke-width: 1.0; stroke-dasharray: 7.0,7.0;"/><polygon fill="#A80036" points="43,90.044,39,99.044,43,95.044,47,99.044,43,90.044" style="stroke: #A80036; stroke-width: 1.0;"/><!--MD5=[5761fdd91d76a59da4e0f0975ea32267]
@startuml
package "A"<<Frame>> {
    class U {
    }
    class V {
    }
}

package "B"<<Frame>> {
    class X {

    }
    class Y {

    }
}

U ..> X
Y ..> V
@enduml

PlantUML version 1.2020.17(Sat Sep 19 12:30:11 UTC 2020)
(GPL source distribution)
Java Runtime: Java(TM) SE Runtime Environment
JVM: Java HotSpot(TM) 64-Bit Server VM
Default Encoding: UTF-8
Language: en
Country: US
--></g></svg>