<svg version="1.1" xmlns="http://www.w3.org/2000/svg" xmlns:xlink="http://www.w3.org/1999/xlink" width="990.62158203125" height="839"><defs/><g><g transform="translate(5,5) scale(1,1)"><path fill="none" stroke="#000000" d="M 5 5 L 699 5 L 699 824 L 5 824 L 5 5" stroke-miterlimit="10"/></g><g transform="translate(5,5) scale(1,1)"><path fill="#ffffff" stroke="none" d="M 5 5 L 5 27 L 158.81396484375 27 L 169.81396484375 16 L 169.81396484375 5 L 5 5"/></g><g transform="translate(5,5) scale(1,1)"><path fill="none" stroke="#000000" d="M 5 5 L 5 27 L 158.81396484375 27 L 169.81396484375 16 L 169.81396484375 5 L 5 5 L 5 5" stroke-miterlimit="10"/></g><g transform="translate(5,5) scale(1,1)"><g><path fill="none" stroke="none"/><text fill="#000000" stroke="none" font-family="Courier New" font-size="13px" font-style="normal" font-weight="normal" text-decoration="none" x="101.81396484375" y="22.5">执行路径</text></g></g><g transform="translate(5,5) scale(1,1)"><g><path fill="none" stroke="none"/><text fill="#000000" stroke="none" font-family="Courier New" font-size="13px" font-style="normal" font-weight="bold" text-decoration="none" x="10" y="22.5">interaction</text></g></g><g transform="translate(5,5) scale(1,1)"><rect fill="#C0C0C0" stroke="none" x="183" y="47" width="206.23046875" height="39" opacity="0.2"/></g><g transform="translate(5,5) scale(1,1)"><rect fill="#ffffff" stroke="none" x="176" y="40" width="206.23046875" height="39"/></g><g transform="translate(5,5) scale(1,1)"><path fill="none" stroke="#000000" d="M 176 40 L 382.23046875 40 L 382.23046875 79 L 176 79 L 176 40 Z Z" stroke-miterlimit="10"/></g><g transform="translate(5,5) scale(1,1)"><g><path fill="none" stroke="none"/><text fill="#000000" stroke="none" font-family="Courier New" font-size="13px" font-style="normal" font-weight="bold" text-decoration="none" x="185.5" y="59.5">DefaultSqlSessionFactory</text></g></g><g transform="translate(5,5) scale(1,1)"><path fill="none" stroke="#000000" d="M 280.5 80 L 280.5 560" stroke-miterlimit="10" stroke-dasharray="3"/></g><g transform="translate(5,5) scale(1,1)"><rect fill="#C0C0C0" stroke="none" x="55" y="47" width="89.21142578125" height="39" opacity="0.2"/></g><g transform="translate(5,5) scale(1,1)"><rect fill="#ffffff" stroke="none" x="48" y="40" width="89.21142578125" height="39"/></g><g transform="translate(5,5) scale(1,1)"><path fill="none" stroke="#000000" d="M 48 40 L 137.21142578125 40 L 137.21142578125 79 L 48 79 L 48 40 Z Z" stroke-miterlimit="10"/></g><g transform="translate(5,5) scale(1,1)"><g><path fill="none" stroke="none"/><text fill="#000000" stroke="none" font-family="Courier New" font-size="13px" font-style="normal" font-weight="bold" text-decoration="none" x="73.1025390625" y="59.5">Actor</text></g></g><g transform="translate(5,5) scale(1,1)"><path fill="none" stroke="#000000" d="M 93.5 80 L 93.5 568" stroke-miterlimit="10" stroke-dasharray="3"/></g><g transform="translate(5,5) scale(1,1)"><rect fill="#C0C0C0" stroke="none" x="455" y="47" width="120.41650390625" height="39" opacity="0.2"/></g><g transform="translate(5,5) scale(1,1)"><rect fill="#ffffff" stroke="none" x="448" y="40" width="120.41650390625" height="39"/></g><g transform="translate(5,5) scale(1,1)"><path fill="none" stroke="#000000" d="M 448 40 L 568.41650390625 40 L 568.41650390625 79 L 448 79 L 448 40 Z Z" stroke-miterlimit="10"/></g><g transform="translate(5,5) scale(1,1)"><g><path fill="none" stroke="none"/><text fill="#000000" stroke="none" font-family="Courier New" font-size="13px" font-style="normal" font-weight="bold" text-decoration="none" x="457.5" y="59.5">Configuration</text></g></g><g transform="translate(5,5) scale(1,1)"><path fill="none" stroke="#000000" d="M 509.5 80 L 509.5 592" stroke-miterlimit="10" stroke-dasharray="3"/></g><g transform="translate(5,5) scale(1,1)"><rect fill="#C0C0C0" stroke="none" x="623" y="47" width="159.4228515625" height="39" opacity="0.2"/></g><g transform="translate(5,5) scale(1,1)"><rect fill="#ffffff" stroke="none" x="616" y="40" width="159.4228515625" height="39"/></g><g transform="translate(5,5) scale(1,1)"><path fill="none" stroke="#000000" d="M 616 40 L 775.4228515625 40 L 775.4228515625 79 L 616 79 L 616 40 Z Z" stroke-miterlimit="10"/></g><g transform="translate(5,5) scale(1,1)"><g><path fill="none" stroke="none"/><text fill="#000000" stroke="none" font-family="Courier New" font-size="13px" font-style="normal" font-weight="bold" text-decoration="none" x="625.5" y="59.5">TransactionFactory</text></g></g><g transform="translate(5,5) scale(1,1)"><path fill="none" stroke="#000000" d="M 696.5 80 L 696.5 544" stroke-miterlimit="10" stroke-dasharray="3"/></g><g transform="translate(5,5) scale(1,1)"><rect fill="#C0C0C0" stroke="none" x="831" y="47" width="151.62158203125" height="39" opacity="0.2"/></g><g transform="translate(5,5) scale(1,1)"><rect fill="#ffffff" stroke="none" x="824" y="40" width="151.62158203125" height="39"/></g><g transform="translate(5,5) scale(1,1)"><path fill="none" stroke="#000000" d="M 824 40 L 975.62158203125 40 L 975.62158203125 79 L 824 79 L 824 40 Z Z" stroke-miterlimit="10"/></g><g transform="translate(5,5) scale(1,1)"><g><path fill="none" stroke="none"/><text fill="#000000" stroke="none" font-family="Courier New" font-size="13px" font-style="normal" font-weight="bold" text-decoration="none" x="833.5" y="59.5">DefaultSqlSession</text></g></g><g transform="translate(5,5) scale(1,1)"><path fill="none" stroke="#000000" d="M 900.5 80 L 900.5 616" stroke-miterlimit="10" stroke-dasharray="3"/></g><g transform="translate(5,5) scale(1,1)"><path fill="none" stroke="#000000" d="M 93 113 L 273 113" stroke-miterlimit="10"/></g><g transform="translate(5,5) scale(1,1)"><path fill="#000000" stroke="none" d="M 262.83732514237585 117.20951775601598 L 273 113 L 262.83732514237585 108.79048224398402"/></g><g transform="translate(5,5) scale(1,1)"><path fill="none" stroke="#000000" d="M 262.83732514237585 117.20951775601598 L 273 113 L 262.83732514237585 108.79048224398402 L 262.83732514237585 117.20951775601598" stroke-miterlimit="10"/></g><g transform="translate(5,5) scale(1,1)"><g><path fill="none" stroke="none"/><text fill="#000000" stroke="none" font-family="Courier New" font-size="13px" font-style="normal" font-weight="normal" text-decoration="none" x="124.5" y="109.5">1 : openSession</text></g></g><g transform="translate(5,5) scale(1,1)"><rect fill="#ffffff" stroke="none" x="273" y="113" width="13" height="295"/></g><g transform="translate(5,5) scale(1,1)"><path fill="none" stroke="#000000" d="M 273 113 L 286 113 L 286 408 L 273 408 L 273 113 Z Z" stroke-miterlimit="10"/></g><g transform="translate(5,5) scale(1,1)"><path fill="none" stroke="#000000" d="M 286 120 L 502 120" stroke-miterlimit="10"/></g><g transform="translate(5,5) scale(1,1)"><path fill="#000000" stroke="none" d="M 491.83732514237585 124.20951775601598 L 502 120 L 491.83732514237585 115.79048224398402"/></g><g transform="translate(5,5) scale(1,1)"><path fill="none" stroke="#000000" d="M 491.83732514237585 124.20951775601598 L 502 120 L 491.83732514237585 115.79048224398402 L 491.83732514237585 124.20951775601598" stroke-miterlimit="10"/></g><g transform="translate(5,5) scale(1,1)"><g><path fill="none" stroke="none"/><text fill="#000000" stroke="none" font-family="Courier New" font-size="13px" font-style="normal" font-weight="normal" text-decoration="none" x="292.5" y="116.5">2 : getDefaultExecutorType</text></g></g><g transform="translate(5,5) scale(1,1)"><rect fill="#ffffff" stroke="none" x="502" y="120" width="13" height="28"/></g><g transform="translate(5,5) scale(1,1)"><path fill="none" stroke="#000000" d="M 502 120 L 515 120 L 515 148 L 502 148 L 502 120 Z Z" stroke-miterlimit="10"/></g><g transform="translate(5,5) scale(1,1)"><path fill="none" stroke="#000000" d="M 286 144 L 316 144 L 316 164 L 293 164" stroke-miterlimit="10"/></g><g transform="translate(5,5) scale(1,1)"><path fill="#000000" stroke="none" d="M 303.16267485762415 159.790482243984 L 293 164 L 303.16267485762415 168.209517756016"/></g><g transform="translate(5,5) scale(1,1)"><path fill="none" stroke="#000000" d="M 303.16267485762415 159.790482243984 L 293 164 L 303.16267485762415 168.209517756016 L 303.16267485762415 159.790482243984" stroke-miterlimit="10"/></g><g transform="translate(5,5) scale(1,1)"><g><path fill="none" stroke="none"/><text fill="#000000" stroke="none" font-family="Courier New" font-size="13px" font-style="normal" font-weight="normal" text-decoration="none" x="211.5" y="159.5">3 : openSessionFromDataSource</text></g></g><g transform="translate(5,5) scale(1,1)"><rect fill="#ffffff" stroke="none" x="280" y="164" width="13" height="172"/></g><g transform="translate(5,5) scale(1,1)"><path fill="none" stroke="#000000" d="M 280 164 L 293 164 L 293 336 L 280 336 L 280 164 Z Z" stroke-miterlimit="10"/></g><g transform="translate(5,5) scale(1,1)"><path fill="none" stroke="#000000" d="M 293 184 L 323 184 L 323 204 L 300 204" stroke-miterlimit="10"/></g><g transform="translate(5,5) scale(1,1)"><path fill="#000000" stroke="none" d="M 310.16267485762415 199.790482243984 L 300 204 L 310.16267485762415 208.209517756016"/></g><g transform="translate(5,5) scale(1,1)"><path fill="none" stroke="#000000" d="M 310.16267485762415 199.790482243984 L 300 204 L 310.16267485762415 208.209517756016 L 310.16267485762415 199.790482243984" stroke-miterlimit="10"/></g><g transform="translate(5,5) scale(1,1)"><g><path fill="none" stroke="none"/><text fill="#000000" stroke="none" font-family="Courier New" font-size="13px" font-style="normal" font-weight="normal" text-decoration="none" x="175.5" y="199.5">4 : getTransactionFactoryFromEnvironment</text></g></g><g transform="translate(5,5) scale(1,1)"><rect fill="#ffffff" stroke="none" x="287" y="204" width="13" height="28"/></g><g transform="translate(5,5) scale(1,1)"><path fill="none" stroke="#000000" d="M 287 204 L 300 204 L 300 232 L 287 232 L 287 204 Z Z" stroke-miterlimit="10"/></g><g transform="translate(5,5) scale(1,1)"><path fill="none" stroke="#000000" d="M 293 248 L 689 248" stroke-miterlimit="10"/></g><g transform="translate(5,5) scale(1,1)"><path fill="#000000" stroke="none" d="M 678.8373251423759 252.209517756016 L 689 248 L 678.8373251423758 243.790482243984"/></g><g transform="translate(5,5) scale(1,1)"><path fill="none" stroke="#000000" d="M 678.8373251423759 252.209517756016 L 689 248 L 678.8373251423758 243.790482243984 L 678.8373251423759 252.209517756016" stroke-miterlimit="10"/></g><g transform="translate(5,5) scale(1,1)"><g><path fill="none" stroke="none"/><text fill="#000000" stroke="none" font-family="Courier New" font-size="13px" font-style="normal" font-weight="normal" text-decoration="none" x="338.5" y="244.5">5 : newTransaction(ds,level,autocommit)</text></g></g><g transform="translate(5,5) scale(1,1)"><rect fill="#ffffff" stroke="none" x="689" y="248" width="13" height="28"/></g><g transform="translate(5,5) scale(1,1)"><path fill="none" stroke="#000000" d="M 689 248 L 702 248 L 702 276 L 689 276 L 689 248 Z Z" stroke-miterlimit="10"/></g><g transform="translate(5,5) scale(1,1)"><path fill="none" stroke="#000000" d="M 293 276 L 502 276" stroke-miterlimit="10"/></g><g transform="translate(5,5) scale(1,1)"><path fill="#000000" stroke="none" d="M 491.83732514237585 280.209517756016 L 502 276 L 491.83732514237585 271.790482243984"/></g><g transform="translate(5,5) scale(1,1)"><path fill="none" stroke="#000000" d="M 491.83732514237585 280.209517756016 L 502 276 L 491.83732514237585 271.790482243984 L 491.83732514237585 280.209517756016" stroke-miterlimit="10"/></g><g transform="translate(5,5) scale(1,1)"><g><path fill="none" stroke="none"/><text fill="#000000" stroke="none" font-family="Courier New" font-size="13px" font-style="normal" font-weight="normal" text-decoration="none" x="299.5" y="272.5">6 : newExecutor(tx, type)</text></g></g><g transform="translate(5,5) scale(1,1)"><rect fill="#ffffff" stroke="none" x="502" y="276" width="13" height="28"/></g><g transform="translate(5,5) scale(1,1)"><path fill="none" stroke="#000000" d="M 502 276 L 515 276 L 515 304 L 502 304 L 502 276 Z Z" stroke-miterlimit="10"/></g><g transform="translate(5,5) scale(1,1)"><path fill="none" stroke="#000000" d="M 293 320 L 893 320" stroke-miterlimit="10"/></g><g transform="translate(5,5) scale(1,1)"><path fill="#000000" stroke="none" d="M 882.8373251423759 324.209517756016 L 893 320 L 882.8373251423758 315.790482243984"/></g><g transform="translate(5,5) scale(1,1)"><path fill="none" stroke="#000000" d="M 882.8373251423759 324.209517756016 L 893 320 L 882.8373251423758 315.790482243984 L 882.8373251423759 324.209517756016" stroke-miterlimit="10"/></g><g transform="translate(5,5) scale(1,1)"><g><path fill="none" stroke="none"/><text fill="#000000" stroke="none" font-family="Courier New" font-size="13px" font-style="normal" font-weight="normal" text-decoration="none" x="483.5" y="316.5">7 : new(cfg, ex, autocommit)</text></g></g><g transform="translate(5,5) scale(1,1)"><rect fill="#ffffff" stroke="none" x="893" y="320" width="13" height="64"/></g><g transform="translate(5,5) scale(1,1)"><path fill="none" stroke="#000000" d="M 893 320 L 906 320 L 906 384 L 893 384 L 893 320 Z Z" stroke-miterlimit="10"/></g><g transform="translate(5,5) scale(1,1)"><path fill="none" stroke="#000000" d="M 893 360 L 286 360" stroke-miterlimit="10" stroke-dasharray="3"/></g><g transform="translate(5,5) scale(1,1)"><path fill="none" stroke="#000000" d="M 296.16267485762415 355.790482243984 L 286 360 L 296.16267485762415 364.209517756016" stroke-miterlimit="10"/></g><g transform="translate(5,5) scale(1,1)"><g><path fill="none" stroke="none"/><text fill="#000000" stroke="none" font-family="Courier New" font-size="13px" font-style="normal" font-weight="normal" text-decoration="none" x="506.5" y="376.5">8 : DefaultSqlSession</text></g></g><g transform="translate(5,5) scale(1,1)"><path fill="none" stroke="#000000" d="M 273 392 L 93 392" stroke-miterlimit="10" stroke-dasharray="3"/></g><g transform="translate(5,5) scale(1,1)"><path fill="none" stroke="#000000" d="M 103.16267485762415 387.790482243984 L 93 392 L 103.16267485762415 396.209517756016" stroke-miterlimit="10"/></g><g transform="translate(5,5) scale(1,1)"><g><path fill="none" stroke="none"/><text fill="#000000" stroke="none" font-family="Courier New" font-size="13px" font-style="normal" font-weight="normal" text-decoration="none" x="100.5" y="408.5">9 : DefaultSqlSession</text></g></g></g></svg>